<svg xmlns="http://www.w3.org/2000/svg" viewBox="0 0 100 100">
  <rect width="100" height="100" rx="22" fill="#0d1117"/>
  <rect x="28" y="28" width="44" height="44" rx="6" fill="none" stroke="#58a6ff" stroke-width="5"/>
  <rect x="38" y="38" width="24" height="24" rx="3" fill="#58a6ff"/>
  <line x1="38" y1="16" x2="38" y2="28" stroke="#58a6ff" stroke-width="4" stroke-linecap="round"/>
  <line x1="50" y1="16" x2="50" y2="28" stroke="#58a6ff" stroke-width="4" stroke-linecap="round"/>
  <line x1="62" y1="16" x2="62" y2="28" stroke="#58a6ff" stroke-width="4" stroke-linecap="round"/>
  <line x1="38" y1="72" x2="38" y2="84" stroke="#58a6ff" stroke-width="4" stroke-linecap="round"/>
  <line x1="50" y1="72" x2="50" y2="84" stroke="#58a6ff" stroke-width="4" stroke-linecap="round"/>
  <line x1="62" y1="72" x2="62" y2="84" stroke="#58a6ff" stroke-width="4" stroke-linecap="round"/>
  <line x1="16" y1="38" x2="28" y2="38" stroke="#58a6ff" stroke-width="4" stroke-linecap="round"/>
  <line x1="16" y1="50" x2="28" y2="50" stroke="#58a6ff" stroke-width="4" stroke-linecap="round"/>
  <line x1="16" y1="62" x2="28" y2="62" stroke="#58a6ff" stroke-width="4" stroke-linecap="round"/>
  <line x1="72" y1="38" x2="84" y2="38" stroke="#58a6ff" stroke-width="4" stroke-linecap="round"/>
  <line x1="72" y1="50" x2="84" y2="50" stroke="#58a6ff" stroke-width="4" stroke-linecap="round"/>
  <line x1="72" y1="62" x2="84" y2="62" stroke="#58a6ff" stroke-width="4" stroke-linecap="round"/>
</svg>
